<svg width="258" height="258" viewBox="0 0 258 258" fill="none" xmlns="http://www.w3.org/2000/svg">
<path fill-rule="evenodd" clip-rule="evenodd" d="M129 9.76622C129 4.37263 124.612 -0.0381943 119.234 0.364411C52.5512 5.35586 0 61.0411 0 129C0 200.245 57.7553 258 129 258C196.959 258 252.644 205.449 257.636 138.767C258.038 133.388 253.628 129.001 248.234 129.001V129.001C242.84 129.001 238.514 133.388 238.039 138.76C233.101 194.646 186.168 238.468 129 238.468C68.5424 238.468 19.5319 189.458 19.5319 129C19.5319 71.8319 63.3547 24.8988 119.24 19.9613C124.613 19.4866 129 15.1598 129 9.76622V9.76622Z" fill="#1C78E3"/>
</svg>
